<?xml version="1.0" encoding="utf-8"?>
<!-- Generator: Adobe Illustrator 23.1.1, SVG Export Plug-In . SVG Version: 6.00 Build 0)  -->
<svg version="1.1" id="_x31_00_x__x_164_mm" xmlns="http://www.w3.org/2000/svg" xmlns:xlink="http://www.w3.org/1999/xlink"
	 x="0px" y="0px" viewBox="0 0 464.9 283.5" style="enable-background:new 0 0 464.9 283.5;" xml:space="preserve">
<style type="text/css">
	.st0{fill:#FFD100;}
	.st1{fill:#03878A;}
</style>
<g>
	<path class="st0" d="M325.8,57.5l-38.3,143.1V57.1h29.6c2.1,0,4.1,0.1,6.2,0.2C324.1,57.4,324.9,57.4,325.8,57.5z M136.2,54
		c-1.4-0.1-2.8-0.1-4.2-0.1h-27.9v87.5h8.7h0.2L136.3,54C136.3,54,136.2,54,136.2,54z M39.7,135.4L0,283.5h39.7L39.7,135.4
		L39.7,135.4z M223.1,161.1c-2.7,2.8-5.6,5.5-8.7,8c-0.1,0.1-0.3,0.2-0.4,0.3l-30.6,114.1h39.7L223.1,161.1L223.1,161.1z"/>
	<path class="st1" d="M317.9,226.4h-30.4V57.1h29.6c2.1,0,4.1,0.1,6.2,0.2c40.7,2.8,74.8,32.8,74.8,84.4
		C398.1,194.8,359.2,226.4,317.9,226.4 M131.2,141.3h-18.4h-8.7V53.9H132c1.4,0,2.8,0,4.2,0.1c30.2,1.4,47.2,17.6,47.2,42
		C183.4,124.3,163.6,141.3,131.2,141.3 M317.9,0h-94.8v29.7C203.2,10.1,172.4,0.2,134.9,0c-0.4,0-0.7,0-1.1,0c0,0-0.1,0-0.1,0H39.7
		v283.5h65.6v-89.9h29.2c32.3,0,60-8.5,80-24.5c3.1-2.5,6-5.1,8.7-8v122.4l0,0h94.8c84.2,0,147-57.5,147-142.5
		C464.9,54.7,405.3,0,317.9,0"/>
</g>
</svg>
